<svg width="448" height="48" viewBox="0 0 448 48" fill="none" xmlns="http://www.w3.org/2000/svg">
  <!-- G Letter -->
  <path d="M24 4C10.745 4 0 14.745 0 28C0 41.255 10.745 52 24 52C32.5 52 39.8 47.5 44 40.5V32H28V40H36C34 43.5 29.5 44 24 44C15.163 44 8 36.837 8 28C8 19.163 15.163 12 24 12C28.5 12 32.5 13.5 35.5 16L40.5 11C36 6.5 30.5 4 24 4Z" fill="#003F7F"/>
  
  <!-- GÜL-TEKİN text -->
  <text x="58" y="32" font-family="Arial, sans-serif" font-size="28" font-weight="bold" fill="#DC2626">GÜL-TEKİN</text>
  
  <!-- MÜHENDİSLİK text -->
  <text x="240" y="32" font-family="Arial, sans-serif" font-size="28" font-weight="bold" fill="#003F7F">MÜHENDİSLİK</text>
</svg>